<svg width="1070" height="1070" viewBox="0 0 1070 1070" fill="none" xmlns="http://www.w3.org/2000/svg">
<rect width="1070" height="1070" rx="109" fill="white"/>
<path d="M321.297 599.441L386.102 635.894L406.354 708.8H321.297V599.441Z" fill="#252525"/>
<path d="M146.696 239.17C147.343 234.846 151.584 231.985 155.861 232.887C392.961 282.901 526.062 268.608 751.083 190.21C756.426 188.349 761.948 192.739 761.203 198.348L684.404 776.782C683.679 782.243 677.486 785.088 672.802 782.189C474.198 659.243 346.971 613.679 102.49 588.507C98.1838 588.063 95.0343 584.109 95.6756 579.827L146.696 239.17Z" fill="#FF8F00"/>
<rect x="170.934" y="333.045" width="149.863" height="639.955" rx="12.6267" fill="#3E3E3E"/>
<circle cx="247.889" cy="418.102" r="48.6042" fill="#A4A4A4"/>
<path d="M790.075 407.457L964.572 353.592L967.254 409.462L791.549 438.155L790.075 407.457Z" fill="#A4A4A4"/>
<path d="M796.967 486.739L971.331 494.973L962.819 551.81L792.29 517.968L796.967 486.739Z" fill="#A4A4A4"/>
<path d="M771.069 561.92L933.779 632.154L914.847 684.787L760.667 590.84L771.069 561.92Z" fill="#A4A4A4"/>
</svg>
