<svg width="914" height="876" viewBox="0 0 914 876" fill="none" xmlns="http://www.w3.org/2000/svg">
<path d="M243.297 502.441L308.102 538.894L328.354 611.8H243.297V502.441Z" fill="#252525"/>
<path d="M68.6956 142.17C69.3431 137.846 73.5837 134.985 77.8612 135.887C314.961 185.901 448.062 171.608 673.083 93.2105C678.426 91.349 683.948 95.7394 683.203 101.348L606.404 679.782C605.679 685.243 599.486 688.088 594.802 685.189C396.198 562.243 268.971 516.679 24.4905 491.507C20.1838 491.063 17.0343 487.109 17.6756 482.827L68.6956 142.17Z" fill="#FF8F00"/>
<rect x="92.9336" y="236.045" width="149.863" height="639.955" rx="12.6267" fill="#3E3E3E"/>
<circle cx="169.889" cy="321.102" r="48.6042" fill="#A4A4A4"/>
<path d="M712.075 310.457L886.572 256.592L889.254 312.462L713.549 341.155L712.075 310.457Z" fill="#A4A4A4"/>
<path d="M718.967 389.739L893.331 397.973L884.819 454.81L714.29 420.968L718.967 389.739Z" fill="#A4A4A4"/>
<path d="M693.069 464.92L855.779 535.154L836.847 587.787L682.667 493.84L693.069 464.92Z" fill="#A4A4A4"/>
</svg>
